<svg width="12" height="13" viewBox="0 0 12 13" fill="none" xmlns="http://www.w3.org/2000/svg">
<path d="M1.00005 5.062C0.801137 5.062 0.610373 5.14101 0.46972 5.28167C0.329067 5.42232 0.25005 5.61308 0.25005 5.812C0.25005 6.01091 0.329067 6.20167 0.46972 6.34233C0.610373 6.48298 0.801137 6.562 1.00005 6.562V5.062ZM11.53 6.342C11.6705 6.20137 11.7494 6.01075 11.7494 5.812C11.7494 5.61325 11.6705 5.42262 11.53 5.282L6.75705 0.507996C6.68783 0.436397 6.60504 0.379299 6.51352 0.340036C6.422 0.300774 6.32358 0.28013 6.22399 0.279312C6.12441 0.278494 6.02566 0.297517 5.9335 0.335271C5.84135 0.373025 5.75764 0.428754 5.68725 0.499207C5.61687 0.569659 5.56122 0.653424 5.52355 0.745614C5.48588 0.837804 5.46695 0.936572 5.46786 1.03616C5.46878 1.13574 5.48951 1.23414 5.52886 1.32563C5.56821 1.41711 5.62539 1.49984 5.69705 1.569L9.93905 5.812L5.69705 10.054C5.56036 10.1954 5.48468 10.3848 5.48629 10.5814C5.48791 10.7781 5.5667 10.9662 5.70569 11.1054C5.84468 11.2445 6.03275 11.3235 6.2294 11.3253C6.42605 11.3271 6.61553 11.2515 6.75705 11.115L11.53 6.342ZM1.00005 6.562H11V5.062H1.00005V6.562Z" fill="#191A1F"/>
</svg>
