<svg width="24" height="21" viewBox="0 0 24 21" fill="none" xmlns="http://www.w3.org/2000/svg">
<path d="M9.05835 20.4118C10.033 20.4118 10.8231 19.6217 10.8231 18.6471C10.8231 17.6725 10.033 16.8824 9.05835 16.8824C8.08373 16.8824 7.29364 17.6725 7.29364 18.6471C7.29364 19.6217 8.08373 20.4118 9.05835 20.4118Z" fill="#1A1B1B"/>
<path d="M18.4704 20.4118C19.445 20.4118 20.2351 19.6217 20.2351 18.6471C20.2351 17.6725 19.445 16.8824 18.4704 16.8824C17.4958 16.8824 16.7057 17.6725 16.7057 18.6471C16.7057 19.6217 17.4958 20.4118 18.4704 20.4118Z" fill="#1A1B1B"/>
<path d="M1.4118 1.58823H4.82356L8.11768 12.5294L20.235 11.5294L22.5882 5.11764H6.11768" stroke="#1A1B1B" stroke-width="1.5" stroke-linecap="round" stroke-linejoin="round"/>
<path d="M7.99968 12.4118L7.03614 13.8571C6.59311 14.5217 7.0695 15.4118 7.8682 15.4118H19.9996" stroke="#1A1B1B" stroke-width="1.5" stroke-linecap="round"/>
</svg>
