<svg width="152" height="117" viewBox="0 0 152 117" fill="none" xmlns="http://www.w3.org/2000/svg">
<path d="M137.172 11.8281H109.984V0.953125H42.0156V11.8281H14.8281C10.9825 11.8281 7.29435 13.3558 4.57508 16.0751C1.8558 18.7944 0.328125 22.4825 0.328125 26.3281V101.547C0.328125 105.393 1.8558 109.081 4.57508 111.8C7.29435 114.519 10.9825 116.047 14.8281 116.047H137.172C141.018 116.047 144.706 114.519 147.425 111.8C150.144 109.081 151.672 105.393 151.672 101.547V26.3281C151.672 22.4825 150.144 18.7944 147.425 16.0751C144.706 13.3558 141.018 11.8281 137.172 11.8281ZM75.9964 107.891C51.7669 107.891 32.0614 88.1706 32.0614 63.9411C32.0614 39.7116 51.7669 19.9916 75.9964 19.9916C100.226 19.9916 119.946 39.7116 119.946 63.9411C119.946 88.1706 100.226 107.876 75.9964 107.876V107.891ZM75.9964 34.4844C72.1276 34.4849 68.2968 35.2473 64.7227 36.7283C61.1485 38.2093 57.9011 40.3797 55.1658 43.1157C52.4305 45.8517 50.2609 49.0996 48.7808 52.6741C47.3007 56.2486 46.5391 60.0796 46.5396 63.9484C46.5401 67.8172 47.3026 71.648 48.7836 75.2221C50.2645 78.7962 52.4349 82.0436 55.1709 84.7789C57.9069 87.5143 61.1549 89.6839 64.7294 91.164C68.3038 92.6441 72.1348 93.4056 76.0036 93.4051C83.818 93.4042 91.3119 90.299 96.8368 84.7728C102.362 79.2465 105.465 71.7518 105.464 63.9375C105.463 56.1232 102.358 48.6293 96.8316 43.1044C91.3054 37.5795 83.8107 34.4762 75.9964 34.4771V34.4844Z" fill="#595959"/>
</svg>
