<svg width="41" height="41" viewBox="0 0 41 41" fill="none" xmlns="http://www.w3.org/2000/svg">
<rect width="41" height="41" rx="12" fill="#DA352A"/>
<path d="M26.4564 8.08318C25.7763 7.59982 24.1637 8.73708 24.6637 9.50224L24.9544 9.94201L26.2412 9.79339L26.8896 8.67406L26.6077 8.24096C26.5713 8.18734 26.5338 8.14497 26.4871 8.10628L26.4554 8.08454L26.4564 8.08318ZM32.2923 12.6155L32.1883 12.5441C31.8441 12.3279 31.4301 12.1649 30.9553 12.0807C29.6956 11.8599 27.9677 12.2051 25.9015 13.6541L12.599 23.0567L12.5882 23.0626L12.582 23.0717C12.6072 23.1223 12.6859 23.2695 12.8198 23.5011C13.1142 24.0227 13.4183 24.957 12.7959 26.0675L12.7804 26.0901L11.0084 28.5751L15.3798 31.5752C15.9219 30.7756 16.5146 30.0574 17.3458 29.4962C18.7883 28.5291 20.8292 28.2324 24.1266 29.0242C24.1328 29.0152 24.1266 29.0242 24.1435 29.0092C24.2192 28.928 24.348 28.7501 24.4852 28.5114C24.7536 28.0233 25.0774 27.2604 25.4066 26.3347C26.0679 24.4787 26.775 21.9353 27.3668 19.3659L27.4507 19.0108L27.8165 18.9822C30.3259 18.8272 31.8804 18.0169 32.7219 17.0527C33.5602 16.0931 33.716 14.9738 33.3807 14.0268C33.183 13.4711 32.8176 12.9753 32.2936 12.6137L32.2923 12.6155ZM27.1245 10.2425L26.8453 10.7172L26.2965 10.7799L27.0011 11.8579C27.1228 11.797 27.2472 11.7418 27.3696 11.6895L27.8578 11.3661L27.1245 10.2425ZM29.6706 13.2253C30.0688 13.4986 30.1722 14.0462 29.8977 14.4462C29.6232 14.8462 29.075 14.9466 28.6768 14.6734C28.2785 14.4001 28.1751 13.8524 28.4496 13.4524C28.7242 13.0524 29.2723 12.952 29.6706 13.2253ZM21.941 11.2289C21.2625 10.7433 19.6412 11.8739 20.1484 12.648L20.4348 13.0842L21.7217 12.9356L22.3777 11.8148L22.0913 11.3786C22.0539 11.3264 22.0149 11.2863 21.9727 11.2507L21.941 11.2289ZM22.6062 13.3829L22.3274 13.8571L21.7785 13.9198L22.4274 14.9044L23.2297 14.3367L22.6062 13.3829ZM25.2314 16.5025C25.6296 16.7758 25.7318 17.3252 25.4585 17.7235C25.1853 18.1217 24.6358 18.2239 24.2376 17.9506C23.8394 17.6773 23.7372 17.1279 24.0105 16.7297C24.2838 16.3314 24.8332 16.2292 25.2314 16.5025ZM17.3337 14.4506C16.6506 13.9619 15.0384 15.0987 15.5365 15.8666L15.8274 16.3059L17.1143 16.1573L17.7658 15.0334L17.4839 14.6003C17.4465 14.5481 17.4075 14.5079 17.3653 14.4724L17.3337 14.4506ZM17.9989 16.6046L17.72 17.0788L17.1711 17.1415L17.8365 18.1506L18.6388 17.5829L17.9989 16.6046ZM20.4404 19.5649C20.8387 19.8382 20.9409 20.3876 20.6676 20.7859C20.3943 21.1841 19.8449 21.2863 19.4466 21.013C19.0484 20.7397 18.9462 20.1903 19.2195 19.7921C19.4928 19.3938 20.0422 19.2916 20.4404 19.5649ZM12.4111 17.6757C11.7326 17.1901 10.1167 18.3244 10.6185 19.0947L10.9049 19.5309L12.1917 19.3823L12.8432 18.2585L12.5613 17.8254C12.524 17.7731 12.4849 17.733 12.4428 17.6974L12.4111 17.6757ZM13.0763 19.8296L12.7974 20.3039L12.2485 20.3665L12.9915 21.4955L13.8147 20.9555L13.0763 19.8296ZM15.6378 22.819C16.036 23.0923 16.1382 23.6417 15.8649 24.0399C15.5916 24.4382 15.0422 24.5404 14.644 24.2671C14.2457 23.9938 14.1435 23.4444 14.4168 23.0461C14.6901 22.6479 15.2395 22.5457 15.6378 22.819Z" fill="white"/>
</svg>
