<svg width="16" height="18" viewBox="0 0 16 18" fill="none" xmlns="http://www.w3.org/2000/svg">
<path d="M8.00001 0.896637C4.51701 0.896637 1.70001 3.71364 1.70001 7.19664C1.70001 10.6796 5.78601 15.3506 7.37901 16.8536C7.72101 17.1866 8.26101 17.1866 8.61201 16.8536C10.196 15.3506 14.3 10.8236 14.3 7.19664C14.3 3.56964 11.483 0.896637 8.00001 0.896637Z" stroke="#1A1B1B" stroke-width="1.75" stroke-miterlimit="10"/>
<path d="M8.00001 8.99664C8.99412 8.99664 9.80001 8.19075 9.80001 7.19664C9.80001 6.20252 8.99412 5.39664 8.00001 5.39664C7.0059 5.39664 6.20001 6.20252 6.20001 7.19664C6.20001 8.19075 7.0059 8.99664 8.00001 8.99664Z" fill="#1A1B1B"/>
</svg>
