<svg width="114" height="42" viewBox="0 0 114 42" fill="none" xmlns="http://www.w3.org/2000/svg">
<rect x="0.500793" y="0.929993" width="41" height="41" rx="12" fill="#DA352A"/>
<path d="M26.9571 9.01318C26.277 8.52981 24.6644 9.66707 25.1644 10.4322L25.455 10.872L26.7419 10.7234L27.3903 9.60405L27.1084 9.17095C27.072 9.11733 27.0345 9.07496 26.9878 9.03627L26.9561 9.01453L26.9571 9.01318ZM32.793 13.5455L32.6889 13.4741C32.3448 13.2579 31.9307 13.0949 31.456 13.0107C30.1963 12.7899 28.4684 13.135 26.4022 14.5841L13.0997 23.9867L13.0889 23.9926L13.0827 24.0017C13.1079 24.0523 13.1866 24.1995 13.3205 24.4311C13.6149 24.9527 13.919 25.887 13.2966 26.9975L13.2811 27.0201L11.5091 29.5051L15.8805 32.5052C16.4226 31.7056 17.0153 30.9874 17.8465 30.4262C19.289 29.4591 21.3299 29.1623 24.6273 29.9542C24.6335 29.9452 24.6273 29.9542 24.6442 29.9392C24.7199 29.858 24.8487 29.6801 24.9858 29.4414C25.2543 28.9533 25.5781 28.1904 25.9072 27.2647C26.5686 25.4087 27.2757 22.8653 27.8675 20.2959L27.9514 19.9408L28.3172 19.9122C30.8266 19.7572 32.3811 18.9469 33.2226 17.9827C34.0609 17.0231 34.2167 15.9038 33.8814 14.9568C33.6837 14.4011 33.3183 13.9053 32.7943 13.5437L32.793 13.5455ZM27.6252 11.1725L27.346 11.6472L26.7971 11.7099L27.5018 12.7879C27.6235 12.7269 27.7478 12.6718 27.8703 12.6194L28.3585 12.2961L27.6252 11.1725ZM30.1712 14.1553C30.5695 14.4286 30.6729 14.9762 30.3984 15.3762C30.1238 15.7762 29.5757 15.8766 29.1774 15.6033C28.7792 15.3301 28.6758 14.7824 28.9503 14.3824C29.2248 13.9824 29.773 13.882 30.1712 14.1553ZM22.4417 12.1589C21.7632 11.6733 20.1419 12.8039 20.6491 13.578L20.9355 14.0142L22.2224 13.8656L22.8784 12.7448L22.5919 12.3086C22.5546 12.2564 22.5156 12.2162 22.4734 12.1807L22.4417 12.1589ZM23.1069 14.3129L22.828 14.7871L22.2791 14.8498L22.9281 15.8343L23.7304 15.2667L23.1069 14.3129ZM25.7321 17.4325C26.1303 17.7058 26.2325 18.2552 25.9592 18.6534C25.6859 19.0517 25.1365 19.1539 24.7383 18.8806C24.3401 18.6073 24.2379 18.0579 24.5112 17.6596C24.7844 17.2614 25.3339 17.1592 25.7321 17.4325ZM17.8343 15.3806C17.1513 14.8919 15.539 16.0287 16.0372 16.7966L16.3281 17.2359L17.615 17.0873L18.2665 15.9634L17.9846 15.5303C17.9472 15.478 17.9082 15.4379 17.866 15.4024L17.8343 15.3806ZM18.4995 17.5346L18.2207 18.0088L17.6718 18.0715L18.3371 19.0806L19.1395 18.5129L18.4995 17.5346ZM20.9411 20.4949C21.3393 20.7682 21.4416 21.3176 21.1683 21.7159C20.895 22.1141 20.3455 22.2163 19.9473 21.943C19.5491 21.6697 19.4469 21.1203 19.7202 20.7221C19.9935 20.3238 20.5429 20.2216 20.9411 20.4949ZM12.9118 18.6057C12.2333 18.12 10.6174 19.2544 11.1191 20.0247L11.4056 20.4609L12.6924 20.3123L13.3439 19.1885L13.062 18.7554C13.0246 18.7031 12.9856 18.663 12.9435 18.6274L12.9118 18.6057ZM13.577 20.7596L13.2981 21.2339L12.7492 21.2965L13.4921 22.4255L14.3154 21.8855L13.577 20.7596ZM16.1384 23.749C16.5367 24.0223 16.6389 24.5717 16.3656 24.9699C16.0923 25.3682 15.5429 25.4704 15.1446 25.1971C14.7464 24.9238 14.6442 24.3744 14.9175 23.9761C15.1908 23.5779 15.7402 23.4757 16.1384 23.749Z" fill="white"/>
<path d="M56.1328 12.794C58.3408 12.794 59.9488 13.274 60.9568 14.234C61.9808 15.178 62.4928 16.482 62.4928 18.146C62.4928 18.898 62.3808 19.618 62.1568 20.306C61.9328 20.978 61.5568 21.586 61.0288 22.13C60.5168 22.658 59.8368 23.074 58.9888 23.378C58.1408 23.682 57.0928 23.834 55.8448 23.834H54.2848V29.93H50.6608V12.794H56.1328ZM55.9408 15.77H54.2848V20.858H55.4848C56.1728 20.858 56.7648 20.77 57.2608 20.594C57.7568 20.418 58.1408 20.138 58.4128 19.754C58.6848 19.37 58.8208 18.874 58.8208 18.266C58.8208 17.418 58.5888 16.794 58.1248 16.394C57.6608 15.978 56.9328 15.77 55.9408 15.77ZM68.4191 22.01C68.4191 22.282 68.4031 22.618 68.3711 23.018C68.3551 23.418 68.3311 23.826 68.2991 24.242C68.2831 24.658 68.2591 25.026 68.2271 25.346C68.1951 25.666 68.1711 25.89 68.1551 26.018L74.2031 16.826H78.4991V29.93H75.0431V24.698C75.0431 24.266 75.0591 23.794 75.0911 23.282C75.1231 22.754 75.1551 22.266 75.1871 21.818C75.2351 21.354 75.2671 21.002 75.2831 20.762L69.2591 29.93H64.9631V16.826H68.4191V22.01ZM92.6045 19.514H88.3085V29.93H84.7325V19.514H80.4365V16.826H92.6045V19.514ZM111.054 16.826V29.93H107.718V23.498C107.718 22.858 107.726 22.234 107.742 21.626C107.774 21.018 107.814 20.458 107.862 19.946H107.79L104.166 29.93H101.478L97.8062 19.922H97.7102C97.7742 20.45 97.8142 21.018 97.8302 21.626C97.8622 22.218 97.8782 22.874 97.8782 23.594V29.93H94.5422V16.826H99.6062L102.87 25.706L106.182 16.826H111.054Z" fill="black"/>
</svg>
