<svg width="18" height="18" viewBox="0 0 18 18" fill="none" xmlns="http://www.w3.org/2000/svg">
<path fill-rule="evenodd" clip-rule="evenodd" d="M12.8931 11.6091L17.7351 16.4511C17.8967 16.6231 17.985 16.8512 17.9813 17.0872C17.9776 17.3231 17.8821 17.5484 17.7152 17.7152C17.5483 17.882 17.3229 17.9772 17.087 17.9808C16.851 17.9843 16.6229 17.8958 16.4511 17.7341L11.6091 12.8921C10.1617 14.0133 8.34146 14.5409 6.5188 14.3677C4.69613 14.1945 3.00792 13.3334 1.7976 11.9596C0.58728 10.5859 -0.0542235 8.8026 0.00359444 6.97263C0.0614124 5.14267 0.814208 3.40346 2.10883 2.10883C3.40346 0.814208 5.14267 0.0614124 6.97263 0.00359444C8.8026 -0.0542235 10.5859 0.58728 11.9596 1.7976C13.3334 3.00792 14.1945 4.69613 14.3677 6.5188C14.5409 8.34146 14.0143 10.1617 12.8931 11.6091ZM7.2011 12.5991C8.63326 12.5991 10.0068 12.0302 11.0195 11.0175C12.0322 10.0048 12.6011 8.63126 12.6011 7.1991C12.6011 5.76693 12.0322 4.39341 11.0195 3.38072C10.0068 2.36802 8.63326 1.7991 7.2011 1.7991C5.76893 1.7991 4.39542 2.36802 3.38272 3.38072C2.37002 4.39341 1.8011 5.76693 1.8011 7.1991C1.8011 8.63126 2.37002 10.0048 3.38272 11.0175C4.39542 12.0302 5.76893 12.5991 7.2011 12.5991Z" fill="#1A1B1B"/>
</svg>
