<svg width="30" height="30" viewBox="0 0 30 30" fill="none" xmlns="http://www.w3.org/2000/svg">
<mask id="mask0_51_6477" style="mask-type:luminance" maskUnits="userSpaceOnUse" x="0" y="0" width="30" height="30">
<path d="M0 0H30V30H0V0Z" fill="white"/>
</mask>
<g mask="url(#mask0_51_6477)">
<path fill-rule="evenodd" clip-rule="evenodd" d="M27.188 4.59197L15 -0.00402832L2.81201 4.59197V16.583C2.81201 18.586 3.68901 20.423 4.76801 21.95C5.85901 23.493 7.27601 24.885 8.63101 26.034C10.2929 27.4344 12.068 28.6947 13.938 29.802L14.036 29.859L14.064 29.875L14.072 29.879L14.076 29.881L15 30.404L15.923 29.882L15 28.25C15.923 29.882 15.925 29.881 15.925 29.88H15.928L15.936 29.875L15.964 29.859L16.062 29.802L16.415 29.592C16.715 29.41 17.138 29.146 17.645 28.812C18.94 27.9602 20.1835 27.0325 21.369 26.034C22.724 24.884 24.14 23.494 25.232 21.95C26.312 20.423 27.188 18.586 27.188 16.583V4.59197ZM6.56201 16.583V7.18597L15 4.00397L23.438 7.18597V16.583C23.438 17.498 23.025 18.577 22.17 19.785C21.328 20.975 20.167 22.136 18.943 23.175C17.6962 24.2244 16.3787 25.187 15 26.056C13.6212 25.1867 12.3038 24.2238 11.057 23.174C9.83301 22.135 8.67201 20.974 7.83001 19.784C6.97501 18.576 6.56201 17.498 6.56201 16.583ZM21.222 12.079C21.508 11.6721 21.6208 11.1683 21.5353 10.6784C21.4499 10.1884 21.1734 9.75251 20.7665 9.46647C20.3597 9.18044 19.8559 9.06773 19.3659 9.15316C18.876 9.23858 18.44 9.51513 18.154 9.92197L13.676 16.29L11.484 14.536C11.2918 14.3821 11.0711 14.2677 10.8346 14.1991C10.5981 14.1305 10.3504 14.1092 10.1057 14.1364C9.86095 14.1636 9.62397 14.2387 9.40827 14.3574C9.19256 14.4761 9.00236 14.6362 8.84851 14.8285C8.69467 15.0207 8.5802 15.2414 8.51164 15.4779C8.44308 15.7144 8.42177 15.9621 8.44893 16.2068C8.47609 16.4515 8.55119 16.6885 8.66994 16.9042C8.78869 17.1199 8.94876 17.3101 9.14101 17.464L12.891 20.464C13.0909 20.6239 13.3214 20.7412 13.5683 20.8087C13.8152 20.8762 14.0733 20.8924 14.3268 20.8563C14.5802 20.8203 14.8235 20.7327 15.0418 20.599C15.2601 20.4653 15.4487 20.2883 15.596 20.079L21.222 12.079Z" fill="black"/>
</g>
</svg>
