<svg width="16" height="18" viewBox="0 0 16 18" fill="none" xmlns="http://www.w3.org/2000/svg">
<path d="M8.56209 0.375488H11.5761C11.5761 0.375488 11.4034 4.23649 15.7506 4.52029V7.50239C15.7506 7.50239 13.4252 7.64429 11.575 6.22859L11.6058 12.3952C11.606 13.4993 11.2787 14.5786 10.6653 15.4966C10.0518 16.4147 9.17987 17.1301 8.15971 17.5523C7.13955 17.9746 6.01705 18.0848 4.93426 17.8688C3.85148 17.6529 2.85708 17.1207 2.0769 16.3394C1.29672 15.5582 0.765838 14.563 0.551426 13.48C0.337015 12.3969 0.448715 11.2745 0.872393 10.2549C1.29607 9.23537 2.01268 8.36439 2.93154 7.75223C3.85039 7.14007 4.93019 6.81425 6.03429 6.81599H6.81309V9.87949C6.30504 9.72211 5.7603 9.72899 5.25638 9.89915C4.75247 10.0693 4.31507 10.3941 4.00644 10.8273C3.6978 11.2604 3.53366 11.7799 3.53738 12.3117C3.54109 12.8436 3.71247 13.3607 4.02713 13.7895C4.34178 14.2183 4.78367 14.537 5.28991 14.7001C5.79615 14.8632 6.34094 14.8625 6.84675 14.698C7.35255 14.5335 7.79359 14.2137 8.1071 13.7841C8.4206 13.3544 8.5906 12.8369 8.59289 12.305L8.56209 0.375488Z" fill="#191A1F"/>
</svg>
