<svg width="18" height="19" viewBox="0 0 18 19" fill="none" xmlns="http://www.w3.org/2000/svg">
<path d="M18 16.5V2.5C18 1.4 17.097 0.5 15.995 0.5H2.005C0.855 0.5 0 1.353 0 2.5V16.5C0 17.648 0.855 18.5 2.005 18.5H15.995C16.5255 18.4987 17.034 18.2877 17.4095 17.9131C17.7851 17.5384 17.9974 17.0305 18 16.5ZM14.184 11.107C14.184 11.107 15.316 12.224 15.595 12.742L15.609 12.767C15.7223 12.957 15.7507 13.107 15.694 13.217C15.6 13.4 15.28 13.492 15.171 13.5H13.172C13.032 13.5 12.742 13.464 12.39 13.221C12.12 13.033 11.853 12.722 11.593 12.419C11.205 11.969 10.869 11.579 10.531 11.579C10.4881 11.5792 10.4456 11.5863 10.405 11.6C10.148 11.682 9.822 12.047 9.822 13.022C9.822 13.327 9.582 13.501 9.412 13.501H8.496C8.184 13.501 6.559 13.392 5.12 11.873C3.354 10.013 1.768 6.282 1.754 6.249C1.654 6.008 1.861 5.877 2.086 5.877H4.106C4.377 5.877 4.464 6.041 4.526 6.188C4.596 6.355 4.86 7.029 5.292 7.787C5.995 9.02 6.428 9.522 6.773 9.522C6.83738 9.52072 6.90051 9.50391 6.957 9.473C7.408 9.224 7.324 7.616 7.304 7.284C7.304 7.221 7.303 6.565 7.073 6.25C6.907 6.022 6.626 5.935 6.456 5.902C6.52538 5.80653 6.61658 5.72905 6.722 5.676C7.031 5.522 7.588 5.5 8.142 5.5H8.45C9.051 5.508 9.207 5.547 9.424 5.602C9.863 5.707 9.872 5.992 9.833 6.962C9.822 7.238 9.81 7.551 9.81 7.918L9.807 8.174C9.793 8.67 9.777 9.231 10.127 9.461C10.1725 9.48884 10.2246 9.50402 10.278 9.505C10.4 9.505 10.765 9.505 11.754 7.808C12.189 7.059 12.524 6.175 12.547 6.109C12.5811 6.03709 12.6318 5.97435 12.695 5.926C12.7463 5.89951 12.8033 5.88612 12.861 5.887H15.236C15.496 5.887 15.672 5.926 15.705 6.025C15.762 6.184 15.694 6.669 14.609 8.135L14.126 8.775C13.142 10.063 13.142 10.129 14.184 11.107Z" fill="black"/>
</svg>
