<svg width="20" height="14" viewBox="0 0 20 14" fill="none" xmlns="http://www.w3.org/2000/svg">
<path d="M18.976 2.9569C19.35 4.3968 19.35 7.4449 19.35 7.4449C19.35 7.4449 19.35 10.493 18.976 11.9329C18.8719 12.3384 18.6608 12.7086 18.3647 13.0047C18.0687 13.3007 17.6985 13.5118 17.293 13.6159C15.8531 13.9899 9.99999 13.9899 9.99999 13.9899C9.99999 13.9899 4.14689 13.9899 2.70699 13.6159C2.30145 13.5118 1.9313 13.3007 1.63525 13.0047C1.33919 12.7086 1.12808 12.3384 1.02399 11.9329C0.649994 10.493 0.649994 7.4449 0.649994 7.4449C0.649994 7.4449 0.649994 4.3968 1.02399 2.9569C1.13307 2.5538 1.34584 2.18631 1.64112 1.89103C1.93641 1.59575 2.3039 1.38297 2.70699 1.2739C4.14689 0.899903 9.99999 0.899902 9.99999 0.899902C9.99999 0.899902 15.8531 0.899903 17.293 1.2739C17.6961 1.38297 18.0636 1.59575 18.3589 1.89103C18.6542 2.18631 18.8669 2.5538 18.976 2.9569ZM8.12999 10.2499L12.992 7.4449L8.12999 4.6399V10.2499Z" fill="#191A1F"/>
</svg>
